<?xml version="1.0" standalone="yes"?>

<svg version="1.1" viewBox="0.0 0.0 729.5406824146982 591.1023622047244" fill="none" stroke="none" stroke-linecap="square" stroke-miterlimit="10" xmlns="http://www.w3.org/2000/svg" xmlns:xlink="http://www.w3.org/1999/xlink"><clipPath id="p.0"><path d="m0 0l729.5407 0l0 591.10236l-729.5407 0l0 -591.10236z" clip-rule="nonzero"></path></clipPath><g clip-path="url(#p.0)"><path fill="#000000" fill-opacity="0.0" d="m0 0l729.5407 0l0 591.10236l-729.5407 0z" fill-rule="nonzero"></path><path fill="#ffffff" d="m455.98688 92.10298l179.68439 0l0 179.68443l-179.68439 0z" fill-rule="nonzero"></path><path fill="#cbcbcb" d="m635.67126 92.10298l28.22113 -28.221092l0 179.68442l-28.22113 28.2211z" fill-rule="nonzero"></path><path fill="#ffffff" d="m455.98688 92.10298l28.2211 -28.221092l179.68442 0l-28.22113 28.221092z" fill-rule="nonzero"></path><path fill="#000000" fill-opacity="0.0" d="m455.98688 92.10298l28.2211 -28.221092l179.68442 0l0 179.68442l-28.22113 28.2211l-179.68439 0zm0 0l179.68439 0l28.22113 -28.221092m-28.22113 28.221092l0 179.68443" fill-rule="nonzero"></path><path stroke="#000000" stroke-width="2.0" stroke-linejoin="round" stroke-linecap="butt" d="m455.98688 92.10298l28.2211 -28.221092l179.68442 0l0 179.68442l-28.22113 28.2211l-179.68439 0zm0 0l179.68439 0l28.22113 -28.221092m-28.22113 28.221092l0 179.68443" fill-rule="nonzero"></path><path fill="#cfe2f3" d="m560.8793 206.26787l0 0c0 -4.3313904 3.5112915 -7.8426666 7.8426514 -7.8426666l32.283142 0l0 0c2.080017 0 4.074829 0.8262787 5.5456543 2.297058c1.4707642 1.4707947 2.297058 3.4656067 2.297058 5.5456085l0 31.369766c0 4.3313904 -3.5112915 7.842682 -7.8427124 7.842682l-32.283142 0c-4.33136 0 -7.8426514 -3.5112915 -7.8426514 -7.842682z" fill-rule="nonzero"></path><path stroke="#000000" stroke-width="2.0" stroke-linejoin="round" stroke-linecap="butt" d="m560.8793 206.26787l0 0c0 -4.3313904 3.5112915 -7.8426666 7.8426514 -7.8426666l32.283142 0l0 0c2.080017 0 4.074829 0.8262787 5.5456543 2.297058c1.4707642 1.4707947 2.297058 3.4656067 2.297058 5.5456085l0 31.369766c0 4.3313904 -3.5112915 7.842682 -7.8427124 7.842682l-32.283142 0c-4.33136 0 -7.8426514 -3.5112915 -7.8426514 -7.842682z" fill-rule="nonzero"></path><path fill="#000000" d="m592.02954 230.49275l-12.578125 0l0 -17.453125l4.5 0l0 14.078125l8.078125 0l0 3.375z" fill-rule="nonzero"></path><path fill="#cfe2f3" d="m488.87927 206.26787l0 0c0 -4.3313904 3.5112915 -7.8426666 7.842682 -7.8426666l32.28311 0l0 0c2.080017 0 4.074829 0.8262787 5.5456543 2.297058c1.4707642 1.4707947 2.297058 3.4656067 2.297058 5.5456085l0 31.369766c0 4.3313904 -3.5112915 7.842682 -7.8427124 7.842682l-32.28311 0c-4.3313904 0 -7.842682 -3.5112915 -7.842682 -7.842682z" fill-rule="nonzero"></path><path stroke="#000000" stroke-width="2.0" stroke-linejoin="round" stroke-linecap="butt" d="m488.87927 206.26787l0 0c0 -4.3313904 3.5112915 -7.8426666 7.842682 -7.8426666l32.28311 0l0 0c2.080017 0 4.074829 0.8262787 5.5456543 2.297058c1.4707642 1.4707947 2.297058 3.4656067 2.297058 5.5456085l0 31.369766c0 4.3313904 -3.5112915 7.842682 -7.8427124 7.842682l-32.28311 0c-4.3313904 0 -7.842682 -3.5112915 -7.842682 -7.842682z" fill-rule="nonzero"></path><path fill="#000000" d="m514.2893 230.8365q-1.9375 0 -3.59375 -0.578125q-1.640625 -0.578125 -2.828125 -1.71875q-1.171875 -1.125 -1.828125 -2.828125q-0.65625 -1.703125 -0.65625 -3.921875q0 -2.078125 0.625 -3.765625q0.625 -1.6875 1.8125 -2.890625q1.125 -1.171875 2.8125 -1.796875q1.6875 -0.640625 3.671875 -0.640625q1.109375 0 1.984375 0.125q0.890625 0.125 1.640625 0.328125q0.78125 0.21875 1.421875 0.5q0.640625 0.265625 1.125 0.5l0 4.234375l-0.515625 0q-0.328125 -0.28125 -0.828125 -0.65625q-0.5 -0.390625 -1.140625 -0.765625q-0.640625 -0.375 -1.390625 -0.625q-0.75 -0.265625 -1.609375 -0.265625q-0.9375 0 -1.796875 0.296875q-0.859375 0.296875 -1.578125 0.984375q-0.703125 0.671875 -1.125 1.78125q-0.421875 1.09375 -0.421875 2.65625q0 1.640625 0.453125 2.75q0.46875 1.09375 1.171875 1.734375q0.71875 0.640625 1.59375 0.921875q0.875 0.265625 1.734375 0.265625q0.8125 0 1.609375 -0.234375q0.8125 -0.25 1.5 -0.671875q0.5625 -0.34375 1.046875 -0.71875q0.5 -0.390625 0.828125 -0.671875l0.46875 0l0 4.171875q-0.65625 0.28125 -1.265625 0.546875q-0.59375 0.25 -1.25 0.4375q-0.859375 0.25 -1.609375 0.375q-0.75 0.140625 -2.0625 0.140625z" fill-rule="nonzero"></path><path fill="#cfe2f3" d="m524.6425 118.267876l0 0c0 -4.3313904 3.5112915 -7.842682 7.8427124 -7.842682l32.283142 0l0 0c2.080017 0 4.074829 0.8262863 5.5455933 2.2970734c1.4707642 1.470787 2.297058 3.465599 2.297058 5.5456085l0 31.369759c0 4.3313904 -3.5112915 7.842682 -7.8426514 7.842682l-32.283142 0c-4.331421 0 -7.8427124 -3.5112915 -7.8427124 -7.842682z" fill-rule="nonzero"></path><path stroke="#000000" stroke-width="2.0" stroke-linejoin="round" stroke-linecap="butt" d="m524.6425 118.267876l0 0c0 -4.3313904 3.5112915 -7.842682 7.8427124 -7.842682l32.283142 0l0 0c2.080017 0 4.074829 0.8262863 5.5455933 2.2970734c1.4707642 1.470787 2.297058 3.465599 2.297058 5.5456085l0 31.369759c0 4.3313904 -3.5112915 7.842682 -7.8426514 7.842682l-32.283142 0c-4.331421 0 -7.8427124 -3.5112915 -7.8427124 -7.842682z" fill-rule="nonzero"></path><path fill="#000000" d="m557.5096 125.03963l-6.359375 17.453125l-5.046875 0l-6.359375 -17.453125l4.71875 0l4.21875 12.265625l4.21875 -12.265625l4.609375 0z" fill-rule="nonzero"></path><path fill="#000000" fill-opacity="0.0" d="m548.6268 157.48032l-35.748047 40.944885" fill-rule="nonzero"></path><path stroke="#000000" stroke-width="2.0" stroke-linejoin="round" stroke-linecap="butt" d="m548.6268 157.48032l-27.855835 31.90535" fill-rule="evenodd"></path><path fill="#000000" stroke="#000000" stroke-width="2.0" stroke-linecap="butt" d="m518.2825 187.21303l-3.480774 9.009689l8.457703 -4.6644135z" fill-rule="evenodd"></path><path fill="#000000" fill-opacity="0.0" d="m548.6268 157.48032l36.251953 40.944885" fill-rule="nonzero"></path><path stroke="#000000" stroke-width="2.0" stroke-linejoin="round" stroke-linecap="butt" d="m548.6268 157.48032l28.29718 31.960358" fill-rule="evenodd"></path><path fill="#000000" stroke="#000000" stroke-width="2.0" stroke-linecap="butt" d="m574.4506 191.63052l8.489929 4.605591l-3.543213 -8.985306z" fill-rule="evenodd"></path><path fill="#ffffff" d="m119.98688 108.10298l179.68442 0l0 179.68443l-179.68442 0z" fill-rule="nonzero"></path><path fill="#cbcbcb" d="m299.6713 108.10298l28.2211 -28.221092l0 179.68442l-28.2211 28.2211z" fill-rule="nonzero"></path><path fill="#ffffff" d="m119.98688 108.10298l28.2211 -28.221092l179.68442 0l-28.2211 28.221092z" fill-rule="nonzero"></path><path fill="#000000" fill-opacity="0.0" d="m119.98688 108.10298l28.2211 -28.221092l179.68442 0l0 179.68442l-28.2211 28.2211l-179.68442 0zm0 0l179.68442 0l28.2211 -28.221092m-28.2211 28.221092l0 179.68443" fill-rule="nonzero"></path><path stroke="#000000" stroke-width="2.0" stroke-linejoin="round" stroke-linecap="butt" d="m119.98688 108.10298l28.2211 -28.221092l179.68442 0l0 179.68442l-28.2211 28.2211l-179.68442 0zm0 0l179.68442 0l28.2211 -28.221092m-28.2211 28.221092l0 179.68443" fill-rule="nonzero"></path><path fill="#cfe2f3" d="m224.87927 222.26787l0 0c0 -4.3313904 3.5112762 -7.8426666 7.8426666 -7.8426666l32.283157 0l0 0c2.080017 0 4.074829 0.8262787 5.5455933 2.297058c1.4707947 1.4707947 2.2970886 3.4656067 2.2970886 5.5456085l0 31.369766c0 4.3313904 -3.5112915 7.842682 -7.842682 7.842682l-32.283157 0c-4.3313904 0 -7.8426666 -3.5112915 -7.8426666 -7.842682z" fill-rule="nonzero"></path><path stroke="#000000" stroke-width="2.0" stroke-linejoin="round" stroke-linecap="butt" d="m224.87927 222.26787l0 0c0 -4.3313904 3.5112762 -7.8426666 7.8426666 -7.8426666l32.283157 0l0 0c2.080017 0 4.074829 0.8262787 5.5455933 2.297058c1.4707947 1.4707947 2.2970886 3.4656067 2.2970886 5.5456085l0 31.369766c0 4.3313904 -3.5112915 7.842682 -7.842682 7.842682l-32.283157 0c-4.3313904 0 -7.8426666 -3.5112915 -7.8426666 -7.842682z" fill-rule="nonzero"></path><path fill="#000000" d="m256.02954 246.49275l-12.57814 0l0 -17.453125l4.5 0l0 14.078125l8.07814 0l0 3.375z" fill-rule="nonzero"></path><path fill="#cfe2f3" d="m152.87927 222.26787l0 0c0 -4.3313904 3.5112762 -7.8426666 7.8426666 -7.8426666l32.283157 0l0 0c2.0800018 0 4.074814 0.8262787 5.5456085 2.297058c1.4707794 1.4707947 2.297058 3.4656067 2.297058 5.5456085l0 31.369766c0 4.3313904 -3.5112762 7.842682 -7.8426666 7.842682l-32.283157 0c-4.3313904 0 -7.8426666 -3.5112915 -7.8426666 -7.842682z" fill-rule="nonzero"></path><path stroke="#000000" stroke-width="2.0" stroke-linejoin="round" stroke-linecap="butt" d="m152.87927 222.26787l0 0c0 -4.3313904 3.5112762 -7.8426666 7.8426666 -7.8426666l32.283157 0l0 0c2.0800018 0 4.074814 0.8262787 5.5456085 2.297058c1.4707794 1.4707947 2.297058 3.4656067 2.297058 5.5456085l0 31.369766c0 4.3313904 -3.5112762 7.842682 -7.8426666 7.842682l-32.283157 0c-4.3313904 0 -7.8426666 -3.5112915 -7.8426666 -7.842682z" fill-rule="nonzero"></path><path fill="#000000" d="m178.28929 246.8365q-1.9375 0 -3.59375 -0.578125q-1.640625 -0.578125 -2.828125 -1.71875q-1.171875 -1.125 -1.828125 -2.828125q-0.65625 -1.703125 -0.65625 -3.921875q0 -2.078125 0.625 -3.765625q0.625 -1.6875 1.8125 -2.890625q1.125 -1.171875 2.8125 -1.796875q1.6875 -0.640625 3.671875 -0.640625q1.109375 0 1.984375 0.125q0.890625 0.125 1.640625 0.328125q0.78125 0.21875 1.421875 0.5q0.640625 0.265625 1.125 0.5l0 4.234375l-0.515625 0q-0.328125 -0.28125 -0.828125 -0.65625q-0.5 -0.390625 -1.140625 -0.765625q-0.640625 -0.375 -1.390625 -0.625q-0.75 -0.265625 -1.609375 -0.265625q-0.9375 0 -1.796875 0.296875q-0.859375 0.296875 -1.578125 0.984375q-0.703125 0.671875 -1.125 1.78125q-0.421875 1.09375 -0.421875 2.65625q0 1.640625 0.453125 2.75q0.46875 1.09375 1.171875 1.734375q0.71875 0.640625 1.59375 0.921875q0.875 0.265625 1.734375 0.265625q0.8125 0 1.609375 -0.234375q0.8125 -0.25 1.5 -0.671875q0.5625 -0.34375 1.046875 -0.71875q0.5 -0.390625 0.828125 -0.671875l0.46875 0l0 4.171875q-0.65625 0.28125 -1.265625 0.546875q-0.59375 0.25 -1.25 0.4375q-0.859375 0.25 -1.609375 0.375q-0.75 0.140625 -2.0625 0.140625z" fill-rule="nonzero"></path><path fill="#cfe2f3" d="m188.64253 134.26787l0 0c0 -4.3313904 3.5112762 -7.8426743 7.8426666 -7.8426743l32.283157 0l0 0c2.0800018 0 4.074814 0.8262863 5.5456085 2.2970657c1.4707794 1.4707947 2.2970734 3.4656067 2.2970734 5.5456085l0 31.369766c0 4.3313904 -3.5112915 7.842682 -7.842682 7.842682l-32.283157 0c-4.3313904 0 -7.8426666 -3.5112915 -7.8426666 -7.842682z" fill-rule="nonzero"></path><path stroke="#000000" stroke-width="2.0" stroke-linejoin="round" stroke-linecap="butt" d="m188.64253 134.26787l0 0c0 -4.3313904 3.5112762 -7.8426743 7.8426666 -7.8426743l32.283157 0l0 0c2.0800018 0 4.074814 0.8262863 5.5456085 2.2970657c1.4707794 1.4707947 2.2970734 3.4656067 2.2970734 5.5456085l0 31.369766c0 4.3313904 -3.5112915 7.842682 -7.842682 7.842682l-32.283157 0c-4.3313904 0 -7.8426666 -3.5112915 -7.8426666 -7.842682z" fill-rule="nonzero"></path><path fill="#000000" d="m221.5096 141.03963l-6.359375 17.453125l-5.046875 0l-6.359375 -17.453125l4.71875 0l4.21875 12.265625l4.21875 -12.265625l4.609375 0z" fill-rule="nonzero"></path><path fill="#000000" fill-opacity="0.0" d="m212.62679 173.48032l-35.74803 40.944885" fill-rule="nonzero"></path><path stroke="#000000" stroke-width="2.0" stroke-linejoin="round" stroke-linecap="butt" d="m212.62679 173.48032l-27.855835 31.90535" fill-rule="evenodd"></path><path fill="#000000" stroke="#000000" stroke-width="2.0" stroke-linecap="butt" d="m182.28247 203.21303l-3.480774 9.009689l8.457748 -4.6644135z" fill-rule="evenodd"></path><path fill="#000000" fill-opacity="0.0" d="m212.62679 173.48032l36.25197 40.944885" fill-rule="nonzero"></path><path stroke="#000000" stroke-width="2.0" stroke-linejoin="round" stroke-linecap="butt" d="m212.62679 173.48032l28.297195 31.960358" fill-rule="evenodd"></path><path fill="#000000" stroke="#000000" stroke-width="2.0" stroke-linecap="butt" d="m238.45065 207.63052l8.489914 4.605591l-3.5432434 -8.985306z" fill-rule="evenodd"></path><path fill="#ffffff" d="m63.986877 364.103l179.68442 0l0 179.68442l-179.68442 0z" fill-rule="nonzero"></path><path fill="#cbcbcb" d="m243.6713 364.103l28.2211 -28.2211l0 179.68439l-28.2211 28.22113z" fill-rule="nonzero"></path><path fill="#ffffff" d="m63.986877 364.103l28.221092 -28.2211l179.68442 0l-28.2211 28.2211z" fill-rule="nonzero"></path><path fill="#000000" fill-opacity="0.0" d="m63.986877 364.103l28.221092 -28.2211l179.68442 0l0 179.68439l-28.2211 28.22113l-179.68442 0zm0 0l179.68442 0l28.2211 -28.2211m-28.2211 28.2211l0 179.68442" fill-rule="nonzero"></path><path stroke="#000000" stroke-width="2.0" stroke-linejoin="round" stroke-linecap="butt" d="m63.986877 364.103l28.221092 -28.2211l179.68442 0l0 179.68439l-28.2211 28.22113l-179.68442 0zm0 0l179.68442 0l28.2211 -28.2211m-28.2211 28.2211l0 179.68442" fill-rule="nonzero"></path><path fill="#cfe2f3" d="m168.87927 478.26788l0 0c0 -4.3313904 3.5112762 -7.842682 7.8426666 -7.842682l32.283157 0l0 0c2.0800018 0 4.074814 0.8262634 5.5456085 2.297058c1.4707794 1.4707947 2.297058 3.4656067 2.297058 5.545624l0 31.369751c0 4.331421 -3.5112762 7.8426514 -7.8426666 7.8426514l-32.283157 0c-4.3313904 0 -7.8426666 -3.5112305 -7.8426666 -7.8426514z" fill-rule="nonzero"></path><path stroke="#000000" stroke-width="2.0" stroke-linejoin="round" stroke-linecap="butt" d="m168.87927 478.26788l0 0c0 -4.3313904 3.5112762 -7.842682 7.8426666 -7.842682l32.283157 0l0 0c2.0800018 0 4.074814 0.8262634 5.5456085 2.297058c1.4707794 1.4707947 2.297058 3.4656067 2.297058 5.545624l0 31.369751c0 4.331421 -3.5112762 7.8426514 -7.8426666 7.8426514l-32.283157 0c-4.3313904 0 -7.8426666 -3.5112305 -7.8426666 -7.8426514z" fill-rule="nonzero"></path><path fill="#000000" d="m200.02953 502.49277l-12.578125 0l0 -17.453125l4.5 0l0 14.078125l8.078125 0l0 3.375z" fill-rule="nonzero"></path><path fill="#cfe2f3" d="m96.879265 478.26788l0 0c0 -4.3313904 3.5112839 -7.842682 7.8426743 -7.842682l32.283157 0l0 0c2.0800018 0 4.074814 0.8262634 5.5456085 2.297058c1.4707794 1.4707947 2.297058 3.4656067 2.297058 5.545624l0 31.369751c0 4.331421 -3.5112762 7.8426514 -7.8426666 7.8426514l-32.283157 0c-4.3313904 0 -7.8426743 -3.5112305 -7.8426743 -7.8426514z" fill-rule="nonzero"></path><path stroke="#000000" stroke-width="2.0" stroke-linejoin="round" stroke-linecap="butt" d="m96.879265 478.26788l0 0c0 -4.3313904 3.5112839 -7.842682 7.8426743 -7.842682l32.283157 0l0 0c2.0800018 0 4.074814 0.8262634 5.5456085 2.297058c1.4707794 1.4707947 2.297058 3.4656067 2.297058 5.545624l0 31.369751c0 4.331421 -3.5112762 7.8426514 -7.8426666 7.8426514l-32.283157 0c-4.3313904 0 -7.8426743 -3.5112305 -7.8426743 -7.8426514z" fill-rule="nonzero"></path><path fill="#000000" d="m122.2893 502.83652q-1.9375 0 -3.59375 -0.578125q-1.640625 -0.578125 -2.828125 -1.71875q-1.171875 -1.125 -1.828125 -2.828125q-0.65625 -1.703125 -0.65625 -3.921875q0 -2.078125 0.625 -3.765625q0.625 -1.6875 1.8125 -2.890625q1.125 -1.171875 2.8125 -1.796875q1.6875 -0.640625 3.671875 -0.640625q1.109375 0 1.984375 0.125q0.890625 0.125 1.640625 0.328125q0.78125 0.21875 1.421875 0.5q0.640625 0.265625 1.1249924 0.5l0 4.234375l-0.5156174 0q-0.328125 -0.28125 -0.828125 -0.65625q-0.5 -0.390625 -1.140625 -0.765625q-0.640625 -0.375 -1.390625 -0.625q-0.75 -0.265625 -1.609375 -0.265625q-0.9375 0 -1.796875 0.296875q-0.859375 0.296875 -1.578125 0.984375q-0.703125 0.671875 -1.125 1.78125q-0.421875 1.09375 -0.421875 2.65625q0 1.640625 0.453125 2.75q0.46875 1.09375 1.171875 1.734375q0.71875 0.640625 1.59375 0.921875q0.875 0.265625 1.734375 0.265625q0.8125 0 1.609375 -0.234375q0.8125 -0.25 1.5 -0.671875q0.5625 -0.34375 1.046875 -0.71875q0.5 -0.390625 0.8281174 -0.671875l0.46875 0l0 4.171875q-0.6562424 0.28125 -1.2656174 0.546875q-0.59375 0.25 -1.25 0.4375q-0.859375 0.25 -1.609375 0.375q-0.75 0.140625 -2.0625 0.140625z" fill-rule="nonzero"></path><path fill="#cfe2f3" d="m132.64253 390.26788l0 0c0 -4.3313904 3.5112762 -7.842682 7.8426666 -7.842682l32.283157 0l0 0c2.0800018 0 4.074814 0.8262634 5.5456085 2.297058c1.4707794 1.4707947 2.2970734 3.4656067 2.2970734 5.545624l0 31.369751c0 4.3313904 -3.5112915 7.842682 -7.842682 7.842682l-32.283157 0c-4.3313904 0 -7.8426666 -3.5112915 -7.8426666 -7.842682z" fill-rule="nonzero"></path><path stroke="#000000" stroke-width="2.0" stroke-linejoin="round" stroke-linecap="butt" d="m132.64253 390.26788l0 0c0 -4.3313904 3.5112762 -7.842682 7.8426666 -7.842682l32.283157 0l0 0c2.0800018 0 4.074814 0.8262634 5.5456085 2.297058c1.4707794 1.4707947 2.2970734 3.4656067 2.2970734 5.545624l0 31.369751c0 4.3313904 -3.5112915 7.842682 -7.842682 7.842682l-32.283157 0c-4.3313904 0 -7.8426666 -3.5112915 -7.8426666 -7.842682z" fill-rule="nonzero"></path><path fill="#000000" d="m165.5096 397.03964l-6.359375 17.453125l-5.046875 0l-6.359375 -17.453125l4.71875 0l4.21875 12.265625l4.21875 -12.265625l4.609375 0z" fill-rule="nonzero"></path><path fill="#000000" fill-opacity="0.0" d="m156.62679 429.48032l-35.74804 40.944885" fill-rule="nonzero"></path><path stroke="#000000" stroke-width="2.0" stroke-linejoin="round" stroke-linecap="butt" d="m156.62679 429.48032l-27.855835 31.905334" fill-rule="evenodd"></path><path fill="#000000" stroke="#000000" stroke-width="2.0" stroke-linecap="butt" d="m126.28248 459.21304l-3.4807892 9.009674l8.457756 -4.6644287z" fill-rule="evenodd"></path><path fill="#000000" fill-opacity="0.0" d="m156.62679 429.48032l36.25197 40.944885" fill-rule="nonzero"></path><path stroke="#000000" stroke-width="2.0" stroke-linejoin="round" stroke-linecap="butt" d="m156.62679 429.48032l28.297195 31.960327" fill-rule="evenodd"></path><path fill="#000000" stroke="#000000" stroke-width="2.0" stroke-linecap="butt" d="m182.45065 463.63052l8.489914 4.605591l-3.5432434 -8.985291z" fill-rule="evenodd"></path><path fill="#ffffff" d="m287.98688 276.103l179.68442 0l0 179.68442l-179.68442 0z" fill-rule="nonzero"></path><path fill="#cbcbcb" d="m467.6713 276.103l28.2211 -28.2211l0 179.68442l-28.2211 28.2211z" fill-rule="nonzero"></path><path fill="#ffffff" d="m287.98688 276.103l28.2211 -28.2211l179.68442 0l-28.2211 28.2211z" fill-rule="nonzero"></path><path fill="#000000" fill-opacity="0.0" d="m287.98688 276.103l28.2211 -28.2211l179.68442 0l0 179.68442l-28.2211 28.2211l-179.68442 0zm0 0l179.68442 0l28.2211 -28.2211m-28.2211 28.2211l0 179.68442" fill-rule="nonzero"></path><path stroke="#000000" stroke-width="2.0" stroke-linejoin="round" stroke-linecap="butt" d="m287.98688 276.103l28.2211 -28.2211l179.68442 0l0 179.68442l-28.2211 28.2211l-179.68442 0zm0 0l179.68442 0l28.2211 -28.2211m-28.2211 28.2211l0 179.68442" fill-rule="nonzero"></path><path fill="#cfe2f3" d="m392.87927 390.26788l0 0c0 -4.3313904 3.5112915 -7.842682 7.842682 -7.842682l32.283142 0l0 0c2.080017 0 4.074829 0.8262634 5.5455933 2.297058c1.4707947 1.4707947 2.2970886 3.4656067 2.2970886 5.545624l0 31.369751c0 4.3313904 -3.5112915 7.842682 -7.842682 7.842682l-32.283142 0c-4.3313904 0 -7.842682 -3.5112915 -7.842682 -7.842682z" fill-rule="nonzero"></path><path stroke="#000000" stroke-width="2.0" stroke-linejoin="round" stroke-linecap="butt" d="m392.87927 390.26788l0 0c0 -4.3313904 3.5112915 -7.842682 7.842682 -7.842682l32.283142 0l0 0c2.080017 0 4.074829 0.8262634 5.5455933 2.297058c1.4707947 1.4707947 2.2970886 3.4656067 2.2970886 5.545624l0 31.369751c0 4.3313904 -3.5112915 7.842682 -7.842682 7.842682l-32.283142 0c-4.3313904 0 -7.842682 -3.5112915 -7.842682 -7.842682z" fill-rule="nonzero"></path><path fill="#000000" d="m424.02954 414.49277l-12.578125 0l0 -17.453125l4.5 0l0 14.078125l8.078125 0l0 3.375z" fill-rule="nonzero"></path><path fill="#cfe2f3" d="m320.87927 390.26788l0 0c0 -4.3313904 3.5112915 -7.842682 7.842682 -7.842682l32.283142 0l0 0c2.080017 0 4.074829 0.8262634 5.5455933 2.297058c1.4707947 1.4707947 2.2970886 3.4656067 2.2970886 5.545624l0 31.369751c0 4.3313904 -3.5112915 7.842682 -7.842682 7.842682l-32.283142 0c-4.3313904 0 -7.842682 -3.5112915 -7.842682 -7.842682z" fill-rule="nonzero"></path><path stroke="#000000" stroke-width="2.0" stroke-linejoin="round" stroke-linecap="butt" d="m320.87927 390.26788l0 0c0 -4.3313904 3.5112915 -7.842682 7.842682 -7.842682l32.283142 0l0 0c2.080017 0 4.074829 0.8262634 5.5455933 2.297058c1.4707947 1.4707947 2.2970886 3.4656067 2.2970886 5.545624l0 31.369751c0 4.3313904 -3.5112915 7.842682 -7.842682 7.842682l-32.283142 0c-4.3313904 0 -7.842682 -3.5112915 -7.842682 -7.842682z" fill-rule="nonzero"></path><path fill="#000000" d="m346.2893 414.83652q-1.9375 0 -3.59375 -0.578125q-1.640625 -0.578125 -2.828125 -1.71875q-1.171875 -1.125 -1.828125 -2.828125q-0.65625 -1.703125 -0.65625 -3.921875q0 -2.078125 0.625 -3.765625q0.625 -1.6875 1.8125 -2.890625q1.125 -1.171875 2.8125 -1.796875q1.6875 -0.640625 3.671875 -0.640625q1.109375 0 1.984375 0.125q0.890625 0.125 1.640625 0.328125q0.78125 0.21875 1.421875 0.5q0.640625 0.265625 1.125 0.5l0 4.234375l-0.515625 0q-0.328125 -0.28125 -0.828125 -0.65625q-0.5 -0.390625 -1.140625 -0.765625q-0.640625 -0.375 -1.390625 -0.625q-0.75 -0.265625 -1.609375 -0.265625q-0.9375 0 -1.796875 0.296875q-0.859375 0.296875 -1.578125 0.984375q-0.703125 0.671875 -1.125 1.78125q-0.421875 1.09375 -0.421875 2.65625q0 1.640625 0.453125 2.75q0.46875 1.09375 1.171875 1.734375q0.71875 0.640625 1.59375 0.921875q0.875 0.265625 1.734375 0.265625q0.8125 0 1.609375 -0.234375q0.8125 -0.25 1.5 -0.671875q0.5625 -0.34375 1.046875 -0.71875q0.5 -0.390625 0.828125 -0.671875l0.46875 0l0 4.171875q-0.65625 0.28125 -1.265625 0.546875q-0.59375 0.25 -1.25 0.4375q-0.859375 0.25 -1.609375 0.375q-0.75 0.140625 -2.0625 0.140625z" fill-rule="nonzero"></path><path fill="#cfe2f3" d="m356.64252 302.26788l0 0c0 -4.3313904 3.5112915 -7.842682 7.842682 -7.842682l32.283142 0l0 0c2.080017 0 4.074829 0.8262634 5.545624 2.297058c1.4707947 1.4707947 2.297058 3.4656067 2.297058 5.545624l0 31.369751c0 4.3313904 -3.5112915 7.842682 -7.842682 7.842682l-32.283142 0c-4.3313904 0 -7.842682 -3.5112915 -7.842682 -7.842682z" fill-rule="nonzero"></path><path stroke="#000000" stroke-width="2.0" stroke-linejoin="round" stroke-linecap="butt" d="m356.64252 302.26788l0 0c0 -4.3313904 3.5112915 -7.842682 7.842682 -7.842682l32.283142 0l0 0c2.080017 0 4.074829 0.8262634 5.545624 2.297058c1.4707947 1.4707947 2.297058 3.4656067 2.297058 5.545624l0 31.369751c0 4.3313904 -3.5112915 7.842682 -7.842682 7.842682l-32.283142 0c-4.3313904 0 -7.842682 -3.5112915 -7.842682 -7.842682z" fill-rule="nonzero"></path><path fill="#000000" d="m389.50958 309.03964l-6.359375 17.453125l-5.046875 0l-6.359375 -17.453125l4.71875 0l4.21875 12.265625l4.21875 -12.265625l4.609375 0z" fill-rule="nonzero"></path><path fill="#000000" fill-opacity="0.0" d="m380.62677 341.48032l-35.748016 40.944885" fill-rule="nonzero"></path><path stroke="#000000" stroke-width="2.0" stroke-linejoin="round" stroke-linecap="butt" d="m380.62677 341.48032l-27.855804 31.905334" fill-rule="evenodd"></path><path fill="#000000" stroke="#000000" stroke-width="2.0" stroke-linecap="butt" d="m350.28247 371.21304l-3.4808044 9.009674l8.457764 -4.6644287z" fill-rule="evenodd"></path><path fill="#000000" fill-opacity="0.0" d="m380.62677 341.48032l36.251984 40.944885" fill-rule="nonzero"></path><path stroke="#000000" stroke-width="2.0" stroke-linejoin="round" stroke-linecap="butt" d="m380.62677 341.48032l28.29721 31.960327" fill-rule="evenodd"></path><path fill="#000000" stroke="#000000" stroke-width="2.0" stroke-linecap="butt" d="m406.45062 375.63052l8.489929 4.605591l-3.5432434 -8.985291z" fill-rule="evenodd"></path><path fill="#ffffff" d="m479.98688 372.103l179.68439 0l0 179.68442l-179.68439 0z" fill-rule="nonzero"></path><path fill="#cbcbcb" d="m659.67126 372.103l28.22113 -28.2211l0 179.68439l-28.22113 28.22113z" fill-rule="nonzero"></path><path fill="#ffffff" d="m479.98688 372.103l28.2211 -28.2211l179.68442 0l-28.22113 28.2211z" fill-rule="nonzero"></path><path fill="#000000" fill-opacity="0.0" d="m479.98688 372.103l28.2211 -28.2211l179.68442 0l0 179.68439l-28.22113 28.22113l-179.68439 0zm0 0l179.68439 0l28.22113 -28.2211m-28.22113 28.2211l0 179.68442" fill-rule="nonzero"></path><path stroke="#000000" stroke-width="2.0" stroke-linejoin="round" stroke-linecap="butt" d="m479.98688 372.103l28.2211 -28.2211l179.68442 0l0 179.68439l-28.22113 28.22113l-179.68439 0zm0 0l179.68439 0l28.22113 -28.2211m-28.22113 28.2211l0 179.68442" fill-rule="nonzero"></path><path fill="#cfe2f3" d="m584.8793 486.26788l0 0c0 -4.3313904 3.5112915 -7.842682 7.8426514 -7.842682l32.283142 0l0 0c2.080017 0 4.074829 0.8262634 5.5456543 2.297058c1.4707642 1.4707947 2.297058 3.4656067 2.297058 5.545624l0 31.369751c0 4.331421 -3.5112915 7.8426514 -7.8427124 7.8426514l-32.283142 0c-4.33136 0 -7.8426514 -3.5112305 -7.8426514 -7.8426514z" fill-rule="nonzero"></path><path stroke="#000000" stroke-width="2.0" stroke-linejoin="round" stroke-linecap="butt" d="m584.8793 486.26788l0 0c0 -4.3313904 3.5112915 -7.842682 7.8426514 -7.842682l32.283142 0l0 0c2.080017 0 4.074829 0.8262634 5.5456543 2.297058c1.4707642 1.4707947 2.297058 3.4656067 2.297058 5.545624l0 31.369751c0 4.331421 -3.5112915 7.8426514 -7.8427124 7.8426514l-32.283142 0c-4.33136 0 -7.8426514 -3.5112305 -7.8426514 -7.8426514z" fill-rule="nonzero"></path><path fill="#000000" d="m616.02954 510.49277l-12.578125 0l0 -17.453125l4.5 0l0 14.078125l8.078125 0l0 3.375z" fill-rule="nonzero"></path><path fill="#cfe2f3" d="m512.8793 486.26788l0 0c0 -4.3313904 3.5112915 -7.842682 7.8426514 -7.842682l32.283142 0l0 0c2.080017 0 4.074829 0.8262634 5.5456543 2.297058c1.4707642 1.4707947 2.297058 3.4656067 2.297058 5.545624l0 31.369751c0 4.331421 -3.5112915 7.8426514 -7.8427124 7.8426514l-32.283142 0c-4.33136 0 -7.8426514 -3.5112305 -7.8426514 -7.8426514z" fill-rule="nonzero"></path><path stroke="#000000" stroke-width="2.0" stroke-linejoin="round" stroke-linecap="butt" d="m512.8793 486.26788l0 0c0 -4.3313904 3.5112915 -7.842682 7.8426514 -7.842682l32.283142 0l0 0c2.080017 0 4.074829 0.8262634 5.5456543 2.297058c1.4707642 1.4707947 2.297058 3.4656067 2.297058 5.545624l0 31.369751c0 4.331421 -3.5112915 7.8426514 -7.8427124 7.8426514l-32.283142 0c-4.33136 0 -7.8426514 -3.5112305 -7.8426514 -7.8426514z" fill-rule="nonzero"></path><path fill="#000000" d="m538.2893 510.83652q-1.9375 0 -3.59375 -0.578125q-1.640625 -0.578125 -2.828125 -1.71875q-1.171875 -1.125 -1.828125 -2.828125q-0.65625 -1.703125 -0.65625 -3.921875q0 -2.078125 0.625 -3.765625q0.625 -1.6875 1.8125 -2.890625q1.125 -1.171875 2.8125 -1.796875q1.6875 -0.640625 3.671875 -0.640625q1.109375 0 1.984375 0.125q0.890625 0.125 1.640625 0.328125q0.78125 0.21875 1.421875 0.5q0.640625 0.265625 1.125 0.5l0 4.234375l-0.515625 0q-0.328125 -0.28125 -0.828125 -0.65625q-0.5 -0.390625 -1.140625 -0.765625q-0.640625 -0.375 -1.390625 -0.625q-0.75 -0.265625 -1.609375 -0.265625q-0.9375 0 -1.796875 0.296875q-0.859375 0.296875 -1.578125 0.984375q-0.703125 0.671875 -1.125 1.78125q-0.421875 1.09375 -0.421875 2.65625q0 1.640625 0.453125 2.75q0.46875 1.09375 1.171875 1.734375q0.71875 0.640625 1.59375 0.921875q0.875 0.265625 1.734375 0.265625q0.8125 0 1.609375 -0.234375q0.8125 -0.25 1.5 -0.671875q0.5625 -0.34375 1.046875 -0.71875q0.5 -0.390625 0.828125 -0.671875l0.46875 0l0 4.171875q-0.65625 0.28125 -1.265625 0.546875q-0.59375 0.25 -1.25 0.4375q-0.859375 0.25 -1.609375 0.375q-0.75 0.140625 -2.0625 0.140625z" fill-rule="nonzero"></path><path fill="#cfe2f3" d="m548.6425 398.26788l0 0c0 -4.3313904 3.5112915 -7.842682 7.8427124 -7.842682l32.283142 0l0 0c2.080017 0 4.074829 0.8262634 5.5455933 2.297058c1.4707642 1.4707947 2.297058 3.4656067 2.297058 5.545624l0 31.369751c0 4.3313904 -3.5112915 7.842682 -7.8426514 7.842682l-32.283142 0c-4.331421 0 -7.8427124 -3.5112915 -7.8427124 -7.842682z" fill-rule="nonzero"></path><path stroke="#000000" stroke-width="2.0" stroke-linejoin="round" stroke-linecap="butt" d="m548.6425 398.26788l0 0c0 -4.3313904 3.5112915 -7.842682 7.8427124 -7.842682l32.283142 0l0 0c2.080017 0 4.074829 0.8262634 5.5455933 2.297058c1.4707642 1.4707947 2.297058 3.4656067 2.297058 5.545624l0 31.369751c0 4.3313904 -3.5112915 7.842682 -7.8426514 7.842682l-32.283142 0c-4.331421 0 -7.8427124 -3.5112915 -7.8427124 -7.842682z" fill-rule="nonzero"></path><path fill="#000000" d="m581.5096 405.03964l-6.359375 17.453125l-5.046875 0l-6.359375 -17.453125l4.71875 0l4.21875 12.265625l4.21875 -12.265625l4.609375 0z" fill-rule="nonzero"></path><path fill="#000000" fill-opacity="0.0" d="m572.6268 437.48032l-35.748047 40.944885" fill-rule="nonzero"></path><path stroke="#000000" stroke-width="2.0" stroke-linejoin="round" stroke-linecap="butt" d="m572.6268 437.48032l-27.855835 31.905334" fill-rule="evenodd"></path><path fill="#000000" stroke="#000000" stroke-width="2.0" stroke-linecap="butt" d="m542.2825 467.21304l-3.480774 9.009674l8.457703 -4.6644287z" fill-rule="evenodd"></path><path fill="#000000" fill-opacity="0.0" d="m572.6268 437.48032l36.251953 40.944885" fill-rule="nonzero"></path><path stroke="#000000" stroke-width="2.0" stroke-linejoin="round" stroke-linecap="butt" d="m572.6268 437.48032l28.29718 31.960327" fill-rule="evenodd"></path><path fill="#000000" stroke="#000000" stroke-width="2.0" stroke-linecap="butt" d="m598.4506 471.63052l8.489929 4.605591l-3.543213 -8.985291z" fill-rule="evenodd"></path></g></svg>

