<?xml version="1.0" standalone="yes"?>

<svg version="1.1" viewBox="0.0 0.0 671.0446194225722 437.7716535433071" fill="none" stroke="none" stroke-linecap="square" stroke-miterlimit="10" xmlns="http://www.w3.org/2000/svg" xmlns:xlink="http://www.w3.org/1999/xlink"><clipPath id="p.0"><path d="m0 0l671.0446 0l0 437.77167l-671.0446 0l0 -437.77167z" clip-rule="nonzero"></path></clipPath><g clip-path="url(#p.0)"><path fill="#000000" fill-opacity="0.0" d="m0 0l671.0446 0l0 437.77167l-671.0446 0z" fill-rule="nonzero"></path><path fill="#cfe2f3" d="m296.87927 238.26787l0 0c0 -4.3313904 3.5112915 -7.8426666 7.842682 -7.8426666l32.283142 0l0 0c2.080017 0 4.074829 0.8262787 5.5455933 2.297058c1.4707947 1.4707947 2.2970886 3.4656067 2.2970886 5.5456085l0 31.369766c0 4.3313904 -3.5112915 7.842682 -7.842682 7.842682l-32.283142 0c-4.3313904 0 -7.842682 -3.5112915 -7.842682 -7.842682z" fill-rule="nonzero"></path><path stroke="#000000" stroke-width="2.0" stroke-linejoin="round" stroke-linecap="butt" d="m296.87927 238.26787l0 0c0 -4.3313904 3.5112915 -7.8426666 7.842682 -7.8426666l32.283142 0l0 0c2.080017 0 4.074829 0.8262787 5.5455933 2.297058c1.4707947 1.4707947 2.2970886 3.4656067 2.2970886 5.5456085l0 31.369766c0 4.3313904 -3.5112915 7.842682 -7.842682 7.842682l-32.283142 0c-4.3313904 0 -7.842682 -3.5112915 -7.842682 -7.842682z" fill-rule="nonzero"></path><path fill="#000000" d="m322.2893 262.83652q-1.9375 0 -3.59375 -0.578125q-1.640625 -0.578125 -2.828125 -1.71875q-1.171875 -1.125 -1.828125 -2.828125q-0.65625 -1.703125 -0.65625 -3.9218903q0 -2.078125 0.625 -3.765625q0.625 -1.6875 1.8125 -2.890625q1.125 -1.171875 2.8125 -1.796875q1.6875 -0.640625 3.671875 -0.640625q1.109375 0 1.984375 0.125q0.890625 0.125 1.640625 0.328125q0.78125 0.21875 1.421875 0.5q0.640625 0.265625 1.125 0.5l0 4.234375l-0.515625 0q-0.328125 -0.28125 -0.828125 -0.65625q-0.5 -0.390625 -1.140625 -0.765625q-0.640625 -0.375 -1.390625 -0.625q-0.75 -0.265625 -1.609375 -0.265625q-0.9375 0 -1.796875 0.296875q-0.859375 0.296875 -1.578125 0.984375q-0.703125 0.671875 -1.125 1.78125q-0.421875 1.09375 -0.421875 2.65625q0 1.640625 0.453125 2.7500153q0.46875 1.09375 1.171875 1.734375q0.71875 0.640625 1.59375 0.921875q0.875 0.265625 1.734375 0.265625q0.8125 0 1.609375 -0.234375q0.8125 -0.25 1.5 -0.671875q0.5625 -0.34375 1.046875 -0.71875q0.5 -0.390625 0.828125 -0.671875l0.46875 0l0 4.171875q-0.65625 0.28125 -1.265625 0.546875q-0.59375 0.25 -1.25 0.4375q-0.859375 0.25 -1.609375 0.375q-0.75 0.140625 -2.0625 0.140625z" fill-rule="nonzero"></path><path fill="#000000" fill-opacity="0.0" d="m529.9265 133.45145l552.9448 0l0 64.50394l-552.9448 0z" fill-rule="nonzero"></path><path fill="#ffffff" d="m410.54593 204.26834l179.68442 0l0 179.68442l-179.68442 0z" fill-rule="nonzero"></path><path fill="#cbcbcb" d="m590.23035 204.26834l28.22107 -28.2211l0 179.68442l-28.22107 28.2211z" fill-rule="nonzero"></path><path fill="#ffffff" d="m410.54593 204.26834l28.2211 -28.2211l179.68439 0l-28.22107 28.2211z" fill-rule="nonzero"></path><path fill="#000000" fill-opacity="0.0" d="m410.54593 204.26834l28.2211 -28.2211l179.68439 0l0 179.68442l-28.22107 28.2211l-179.68442 0zm0 0l179.68442 0l28.22107 -28.2211m-28.22107 28.2211l0 179.68442" fill-rule="nonzero"></path><path stroke="#000000" stroke-width="2.0" stroke-linejoin="round" stroke-linecap="butt" d="m410.54593 204.26834l28.2211 -28.2211l179.68439 0l0 179.68442l-28.22107 28.2211l-179.68442 0zm0 0l179.68442 0l28.22107 -28.2211m-28.22107 28.2211l0 179.68442" fill-rule="nonzero"></path><path fill="#000000" fill-opacity="0.0" d="m444.26248 215.37007l149.35434 0l0 37.448822l-149.35434 0z" fill-rule="nonzero"></path><path fill="#000000" d="m455.0906 247.41008l0 -17.1875l2.328125 0l9.03125 13.5l0 -13.5l2.171875 0l0 17.1875l-2.328125 0l-9.015625 -13.5l0 13.5l-2.1875 0zm25.613281 -4.015625l2.171875 0.28125q-0.515625 1.90625 -1.90625 2.96875q-1.390625 1.046875 -3.5625 1.046875q-2.734375 0 -4.34375 -1.671875q-1.59375 -1.6875 -1.59375 -4.734375q0 -3.140625 1.609375 -4.875q1.625 -1.734375 4.203125 -1.734375q2.5 0 4.078125 1.703125q1.59375 1.703125 1.59375 4.78125q0 0.1875 -0.015625 0.5625l-9.28125 0q0.109375 2.046875 1.15625 3.140625q1.046875 1.09375 2.609375 1.09375q1.15625 0 1.96875 -0.609375q0.828125 -0.609375 1.3125 -1.953125zm-6.9375 -3.40625l6.953125 0q-0.140625 -1.5625 -0.796875 -2.359375q-1.0 -1.21875 -2.609375 -1.21875q-1.453125 0 -2.453125 0.984375q-0.984375 0.96875 -1.09375 2.59375zm14.050781 7.421875l-3.796875 -12.453125l2.171875 0l1.984375 7.1875l0.734375 2.671875q0.046875 -0.203125 0.640625 -2.5625l1.984375 -7.296875l2.171875 0l1.859375 7.21875l0.625 2.390625l0.71875 -2.40625l2.125 -7.203125l2.046875 0l-3.890625 12.453125l-2.1875 0l-1.984375 -7.453125l-0.46875 -2.125l-2.53125 9.578125l-2.203125 0zm21.703125 0l0 -12.453125l1.90625 0l0 1.78125q1.3749695 -2.0625 3.9530945 -2.0625q1.125 0 2.0625 0.40625q0.953125 0.40625 1.421875 1.0625q0.46875 0.65625 0.65625 1.5625q0.125 0.578125 0.125 2.046875l0 7.65625l-2.109375 0l0 -7.578125q0 -1.28125 -0.25 -1.921875q-0.25 -0.640625 -0.875 -1.015625q-0.625 -0.390625 -1.46875 -0.390625q-1.34375 0 -2.328125 0.859375q-0.9843445 0.859375 -0.9843445 3.25l0 6.796875l-2.109375 0zm12.566376 -6.21875q0 -3.46875 1.921875 -5.125q1.609375 -1.390625 3.921875 -1.390625q2.5625 0 4.1875 1.6875q1.625 1.6875 1.625 4.640625q0 2.40625 -0.71875 3.78125q-0.71875 1.375 -2.09375 2.140625q-1.375 0.765625 -3.0 0.765625q-2.625 0 -4.234375 -1.671875q-1.609375 -1.6875 -1.609375 -4.828125zm2.171875 0q0 2.390625 1.03125 3.578125q1.046875 1.1875 2.640625 1.1875q1.5625 0 2.609375 -1.1875q1.046875 -1.203125 1.046875 -3.65625q0 -2.3125 -1.0625 -3.5q-1.046875 -1.1875 -2.59375 -1.1875q-1.59375 0 -2.640625 1.1875q-1.03125 1.1875 -1.03125 3.578125zm20.035156 6.21875l0 -1.578125q-1.1875 1.859375 -3.484375 1.859375q-1.484375 0 -2.734375 -0.8125q-1.25 -0.828125 -1.9375 -2.296875q-0.671875 -1.46875 -0.671875 -3.390625q0 -1.859375 0.609375 -3.375q0.625 -1.515625 1.859375 -2.328125q1.25 -0.8125 2.78125 -0.8125q1.125 0 2.0 0.484375q0.890625 0.46875 1.4375 1.234375l0 -6.171875l2.09375 0l0 17.1875l-1.953125 0zm-6.671875 -6.21875q0 2.390625 1.0 3.578125q1.015625 1.1875 2.390625 1.1875q1.390625 0 2.34375 -1.125q0.96875 -1.140625 0.96875 -3.453125q0 -2.5625 -0.984375 -3.75q-0.984375 -1.203125 -2.421875 -1.203125q-1.40625 0 -2.359375 1.15625q-0.9375 1.140625 -0.9375 3.609375zm20.472656 2.203125l2.171875 0.28125q-0.515625 1.90625 -1.90625 2.96875q-1.390625 1.046875 -3.5625 1.046875q-2.734375 0 -4.34375 -1.671875q-1.59375 -1.6875 -1.59375 -4.734375q0 -3.140625 1.609375 -4.875q1.625 -1.734375 4.203125 -1.734375q2.5 0 4.078125 1.703125q1.59375 1.703125 1.59375 4.78125q0 0.1875 -0.015625 0.5625l-9.28125 0q0.109375 2.046875 1.15625 3.140625q1.046875 1.09375 2.609375 1.09375q1.15625 0 1.96875 -0.609375q0.828125 -0.609375 1.3125 -1.953125zm-6.9375 -3.40625l6.953125 0q-0.140625 -1.5625 -0.796875 -2.359375q-1.0 -1.21875 -2.609375 -1.21875q-1.453125 0 -2.453125 0.984375q-0.984375 0.96875 -1.09375 2.59375z" fill-rule="nonzero"></path><path fill="#cfe2f3" d="m443.12073 313.78757l0 0c0 -4.3313904 3.5112915 -7.842682 7.842682 -7.842682l32.283142 0l0 0c2.080017 0 4.074829 0.8262634 5.545624 2.297058c1.4707947 1.4707947 2.297058 3.4656067 2.297058 5.545624l0 31.369751c0 4.3313904 -3.5112915 7.842682 -7.842682 7.842682l-32.283142 0c-4.3313904 0 -7.842682 -3.5112915 -7.842682 -7.842682z" fill-rule="nonzero"></path><path stroke="#000000" stroke-width="2.0" stroke-linejoin="round" stroke-linecap="butt" d="m443.12073 313.78757l0 0c0 -4.3313904 3.5112915 -7.842682 7.842682 -7.842682l32.283142 0l0 0c2.080017 0 4.074829 0.8262634 5.545624 2.297058c1.4707947 1.4707947 2.297058 3.4656067 2.297058 5.545624l0 31.369751c0 4.3313904 -3.5112915 7.842682 -7.842682 7.842682l-32.283142 0c-4.3313904 0 -7.842682 -3.5112915 -7.842682 -7.842682z" fill-rule="nonzero"></path><path fill="#000000" d="m468.53076 338.3562q-1.9375 0 -3.59375 -0.578125q-1.640625 -0.578125 -2.828125 -1.71875q-1.171875 -1.125 -1.828125 -2.828125q-0.65625 -1.703125 -0.65625 -3.921875q0 -2.078125 0.625 -3.765625q0.625 -1.6875 1.8125 -2.890625q1.125 -1.171875 2.8125 -1.796875q1.6875 -0.640625 3.671875 -0.640625q1.109375 0 1.984375 0.125q0.890625 0.125 1.640625 0.328125q0.78125 0.21875 1.421875 0.5q0.640625 0.265625 1.125 0.5l0 4.234375l-0.515625 0q-0.328125 -0.28125 -0.828125 -0.65625q-0.5 -0.390625 -1.140625 -0.765625q-0.640625 -0.375 -1.390625 -0.625q-0.75 -0.265625 -1.609375 -0.265625q-0.9375 0 -1.796875 0.296875q-0.859375 0.296875 -1.578125 0.984375q-0.703125 0.671875 -1.125 1.78125q-0.421875 1.09375 -0.421875 2.65625q0 1.640625 0.453125 2.75q0.46875 1.09375 1.171875 1.734375q0.71875 0.640625 1.59375 0.921875q0.875 0.265625 1.734375 0.265625q0.8125 0 1.609375 -0.234375q0.8125 -0.25 1.5 -0.671875q0.5625 -0.34375 1.046875 -0.71875q0.5 -0.390625 0.828125 -0.671875l0.46875 0l0 4.171875q-0.65625 0.28125 -1.265625 0.546875q-0.59375 0.25 -1.25 0.4375q-0.859375 0.25 -1.609375 0.375q-0.75 0.140625 -2.0625 0.140625z" fill-rule="nonzero"></path><path fill="#cfe2f3" d="m224.87927 174.26787l0 0c0 -4.3313904 3.5112762 -7.8426666 7.8426666 -7.8426666l32.283157 0l0 0c2.080017 0 4.074829 0.8262787 5.5455933 2.297058c1.4707947 1.4707947 2.2970886 3.4656067 2.2970886 5.5456085l0 31.369766c0 4.3313904 -3.5112915 7.842682 -7.842682 7.842682l-32.283157 0c-4.3313904 0 -7.8426666 -3.5112915 -7.8426666 -7.842682z" fill-rule="nonzero"></path><path stroke="#000000" stroke-width="2.0" stroke-linejoin="round" stroke-linecap="butt" d="m224.87927 174.26787l0 0c0 -4.3313904 3.5112762 -7.8426666 7.8426666 -7.8426666l32.283157 0l0 0c2.080017 0 4.074829 0.8262787 5.5455933 2.297058c1.4707947 1.4707947 2.2970886 3.4656067 2.2970886 5.5456085l0 31.369766c0 4.3313904 -3.5112915 7.842682 -7.842682 7.842682l-32.283157 0c-4.3313904 0 -7.8426666 -3.5112915 -7.8426666 -7.842682z" fill-rule="nonzero"></path><path fill="#000000" d="m250.28929 198.8365q-1.9375 0 -3.59375 -0.578125q-1.640625 -0.578125 -2.828125 -1.71875q-1.171875 -1.125 -1.828125 -2.828125q-0.65625 -1.703125 -0.65625 -3.921875q0 -2.078125 0.625 -3.765625q0.625 -1.6875 1.8125 -2.890625q1.125 -1.171875 2.8125 -1.796875q1.6875 -0.640625 3.671875 -0.640625q1.109375 0 1.984375 0.125q0.890625 0.125 1.640625 0.328125q0.78125 0.21875 1.421875 0.5q0.640625 0.265625 1.1250153 0.5l0 4.234375l-0.51564026 0q-0.328125 -0.28125 -0.828125 -0.65625q-0.5 -0.390625 -1.140625 -0.765625q-0.640625 -0.375 -1.390625 -0.625q-0.75 -0.265625 -1.609375 -0.265625q-0.9375 0 -1.796875 0.296875q-0.859375 0.296875 -1.578125 0.984375q-0.703125 0.671875 -1.125 1.78125q-0.421875 1.09375 -0.421875 2.65625q0 1.640625 0.453125 2.75q0.46875 1.09375 1.171875 1.734375q0.71875 0.640625 1.59375 0.921875q0.875 0.265625 1.734375 0.265625q0.8125 0 1.609375 -0.234375q0.8125 -0.25 1.5 -0.671875q0.5625 -0.34375 1.046875 -0.71875q0.5 -0.390625 0.82814026 -0.671875l0.46875 0l0 4.171875q-0.65626526 0.28125 -1.2656403 0.546875q-0.59375 0.25 -1.25 0.4375q-0.859375 0.25 -1.609375 0.375q-0.75 0.140625 -2.0625 0.140625z" fill-rule="nonzero"></path><path fill="#cfe2f3" d="m144.87927 94.267876l0 0c0 -4.3313904 3.5112762 -7.842682 7.8426666 -7.842682l32.283157 0l0 0c2.0800018 0 4.074814 0.8262863 5.5456085 2.2970734c1.4707794 1.470787 2.297058 3.465599 2.297058 5.5456085l0 31.369766c0 4.3313828 -3.5112762 7.8426743 -7.8426666 7.8426743l-32.283157 0c-4.3313904 0 -7.8426666 -3.5112915 -7.8426666 -7.8426743z" fill-rule="nonzero"></path><path stroke="#000000" stroke-width="2.0" stroke-linejoin="round" stroke-linecap="butt" d="m144.87927 94.267876l0 0c0 -4.3313904 3.5112762 -7.842682 7.8426666 -7.842682l32.283157 0l0 0c2.0800018 0 4.074814 0.8262863 5.5456085 2.2970734c1.4707794 1.470787 2.297058 3.465599 2.297058 5.5456085l0 31.369766c0 4.3313828 -3.5112762 7.8426743 -7.8426666 7.8426743l-32.283157 0c-4.3313904 0 -7.8426666 -3.5112915 -7.8426666 -7.8426743z" fill-rule="nonzero"></path><path fill="#000000" d="m170.28929 118.8365q-1.9375 0 -3.59375 -0.578125q-1.640625 -0.578125 -2.828125 -1.71875q-1.171875 -1.125 -1.828125 -2.828125q-0.65625 -1.703125 -0.65625 -3.921875q0 -2.078125 0.625 -3.765625q0.625 -1.6875 1.8125 -2.890625q1.125 -1.171875 2.8125 -1.796875q1.6875 -0.640625 3.671875 -0.640625q1.109375 0 1.984375 0.125q0.890625 0.125 1.640625 0.328125q0.78125 0.21875 1.421875 0.5q0.640625 0.265625 1.125 0.5l0 4.234375l-0.515625 0q-0.328125 -0.28125 -0.828125 -0.65625q-0.5 -0.390625 -1.140625 -0.765625q-0.640625 -0.375 -1.390625 -0.625q-0.75 -0.265625 -1.609375 -0.265625q-0.9375 0 -1.796875 0.296875q-0.859375 0.296875 -1.578125 0.984375q-0.703125 0.671875 -1.125 1.78125q-0.421875 1.09375 -0.421875 2.65625q0 1.640625 0.453125 2.75q0.46875 1.09375 1.171875 1.734375q0.71875 0.640625 1.59375 0.921875q0.875 0.265625 1.734375 0.265625q0.8125 0 1.609375 -0.234375q0.8125 -0.25 1.5 -0.671875q0.5625 -0.34375 1.046875 -0.71875q0.5 -0.390625 0.828125 -0.671875l0.46875 0l0 4.171875q-0.65625 0.28125 -1.265625 0.546875q-0.59375 0.25 -1.25 0.4375q-0.859375 0.25 -1.609375 0.375q-0.75 0.140625 -2.0625 0.140625z" fill-rule="nonzero"></path><path fill="#cfe2f3" d="m144.87927 174.26787l0 0c0 -4.3313904 3.5112762 -7.8426666 7.8426666 -7.8426666l32.283157 0l0 0c2.0800018 0 4.074814 0.8262787 5.5456085 2.297058c1.4707794 1.4707947 2.297058 3.4656067 2.297058 5.5456085l0 31.369766c0 4.3313904 -3.5112762 7.842682 -7.8426666 7.842682l-32.283157 0c-4.3313904 0 -7.8426666 -3.5112915 -7.8426666 -7.842682z" fill-rule="nonzero"></path><path stroke="#000000" stroke-width="2.0" stroke-linejoin="round" stroke-linecap="butt" d="m144.87927 174.26787l0 0c0 -4.3313904 3.5112762 -7.8426666 7.8426666 -7.8426666l32.283157 0l0 0c2.0800018 0 4.074814 0.8262787 5.5456085 2.297058c1.4707794 1.4707947 2.297058 3.4656067 2.297058 5.5456085l0 31.369766c0 4.3313904 -3.5112762 7.842682 -7.8426666 7.842682l-32.283157 0c-4.3313904 0 -7.8426666 -3.5112915 -7.8426666 -7.842682z" fill-rule="nonzero"></path><path fill="#000000" d="m170.28929 198.8365q-1.9375 0 -3.59375 -0.578125q-1.640625 -0.578125 -2.828125 -1.71875q-1.171875 -1.125 -1.828125 -2.828125q-0.65625 -1.703125 -0.65625 -3.921875q0 -2.078125 0.625 -3.765625q0.625 -1.6875 1.8125 -2.890625q1.125 -1.171875 2.8125 -1.796875q1.6875 -0.640625 3.671875 -0.640625q1.109375 0 1.984375 0.125q0.890625 0.125 1.640625 0.328125q0.78125 0.21875 1.421875 0.5q0.640625 0.265625 1.125 0.5l0 4.234375l-0.515625 0q-0.328125 -0.28125 -0.828125 -0.65625q-0.5 -0.390625 -1.140625 -0.765625q-0.640625 -0.375 -1.390625 -0.625q-0.75 -0.265625 -1.609375 -0.265625q-0.9375 0 -1.796875 0.296875q-0.859375 0.296875 -1.578125 0.984375q-0.703125 0.671875 -1.125 1.78125q-0.421875 1.09375 -0.421875 2.65625q0 1.640625 0.453125 2.75q0.46875 1.09375 1.171875 1.734375q0.71875 0.640625 1.59375 0.921875q0.875 0.265625 1.734375 0.265625q0.8125 0 1.609375 -0.234375q0.8125 -0.25 1.5 -0.671875q0.5625 -0.34375 1.046875 -0.71875q0.5 -0.390625 0.828125 -0.671875l0.46875 0l0 4.171875q-0.65625 0.28125 -1.265625 0.546875q-0.59375 0.25 -1.25 0.4375q-0.859375 0.25 -1.609375 0.375q-0.75 0.140625 -2.0625 0.140625z" fill-rule="nonzero"></path><path fill="#cfe2f3" d="m176.87927 254.26787l0 0c0 -4.3313904 3.5112762 -7.8426666 7.8426666 -7.8426666l32.283157 0l0 0c2.0800018 0 4.074814 0.8262787 5.5456085 2.297058c1.4707794 1.4707947 2.297058 3.4656067 2.297058 5.5456085l0 31.369766c0 4.3313904 -3.5112762 7.842682 -7.8426666 7.842682l-32.283157 0c-4.3313904 0 -7.8426666 -3.5112915 -7.8426666 -7.842682z" fill-rule="nonzero"></path><path stroke="#000000" stroke-width="2.0" stroke-linejoin="round" stroke-linecap="butt" d="m176.87927 254.26787l0 0c0 -4.3313904 3.5112762 -7.8426666 7.8426666 -7.8426666l32.283157 0l0 0c2.0800018 0 4.074814 0.8262787 5.5456085 2.297058c1.4707794 1.4707947 2.297058 3.4656067 2.297058 5.5456085l0 31.369766c0 4.3313904 -3.5112762 7.842682 -7.8426666 7.842682l-32.283157 0c-4.3313904 0 -7.8426666 -3.5112915 -7.8426666 -7.842682z" fill-rule="nonzero"></path><path fill="#000000" d="m202.28929 278.83652q-1.9375 0 -3.59375 -0.578125q-1.640625 -0.578125 -2.828125 -1.71875q-1.171875 -1.125 -1.828125 -2.828125q-0.65625 -1.703125 -0.65625 -3.921875q0 -2.078125 0.625 -3.765625q0.625 -1.6875 1.8125 -2.890625q1.125 -1.171875 2.8125 -1.796875q1.6875 -0.640625 3.671875 -0.640625q1.109375 0 1.984375 0.125q0.890625 0.125 1.640625 0.328125q0.78125 0.21875 1.421875 0.5q0.640625 0.265625 1.125 0.5l0 4.234375l-0.515625 0q-0.328125 -0.28125 -0.828125 -0.65625q-0.5 -0.390625 -1.140625 -0.765625q-0.640625 -0.375 -1.390625 -0.625q-0.75 -0.265625 -1.609375 -0.265625q-0.9375 0 -1.796875 0.296875q-0.859375 0.296875 -1.578125 0.984375q-0.703125 0.671875 -1.125 1.78125q-0.421875 1.09375 -0.421875 2.65625q0 1.640625 0.453125 2.75q0.46875 1.09375 1.171875 1.734375q0.71875 0.640625 1.59375 0.921875q0.875 0.265625 1.734375 0.265625q0.8125 0 1.609375 -0.234375q0.8125 -0.25 1.5 -0.671875q0.5625 -0.34375 1.046875 -0.71875q0.5 -0.390625 0.828125 -0.671875l0.46875 0l0 4.171875q-0.65625 0.28125 -1.265625 0.546875q-0.59375 0.25 -1.25 0.4375q-0.859375 0.25 -1.609375 0.375q-0.75 0.140625 -2.0625 0.140625z" fill-rule="nonzero"></path><path fill="#cfe2f3" d="m224.87927 342.26788l0 0c0 -4.3313904 3.5112762 -7.842682 7.8426666 -7.842682l32.283157 0l0 0c2.080017 0 4.074829 0.8262634 5.5455933 2.297058c1.4707947 1.4707947 2.2970886 3.4656067 2.2970886 5.545624l0 31.369751c0 4.3313904 -3.5112915 7.842682 -7.842682 7.842682l-32.283157 0c-4.3313904 0 -7.8426666 -3.5112915 -7.8426666 -7.842682z" fill-rule="nonzero"></path><path stroke="#000000" stroke-width="2.0" stroke-linejoin="round" stroke-linecap="butt" d="m224.87927 342.26788l0 0c0 -4.3313904 3.5112762 -7.842682 7.8426666 -7.842682l32.283157 0l0 0c2.080017 0 4.074829 0.8262634 5.5455933 2.297058c1.4707947 1.4707947 2.2970886 3.4656067 2.2970886 5.545624l0 31.369751c0 4.3313904 -3.5112915 7.842682 -7.842682 7.842682l-32.283157 0c-4.3313904 0 -7.8426666 -3.5112915 -7.8426666 -7.842682z" fill-rule="nonzero"></path><path fill="#000000" d="m250.28929 366.83652q-1.9375 0 -3.59375 -0.578125q-1.640625 -0.578125 -2.828125 -1.71875q-1.171875 -1.125 -1.828125 -2.828125q-0.65625 -1.703125 -0.65625 -3.921875q0 -2.078125 0.625 -3.765625q0.625 -1.6875 1.8125 -2.890625q1.125 -1.171875 2.8125 -1.796875q1.6875 -0.640625 3.671875 -0.640625q1.109375 0 1.984375 0.125q0.890625 0.125 1.640625 0.328125q0.78125 0.21875 1.421875 0.5q0.640625 0.265625 1.1250153 0.5l0 4.234375l-0.51564026 0q-0.328125 -0.28125 -0.828125 -0.65625q-0.5 -0.390625 -1.140625 -0.765625q-0.640625 -0.375 -1.390625 -0.625q-0.75 -0.265625 -1.609375 -0.265625q-0.9375 0 -1.796875 0.296875q-0.859375 0.296875 -1.578125 0.984375q-0.703125 0.671875 -1.125 1.78125q-0.421875 1.09375 -0.421875 2.65625q0 1.640625 0.453125 2.75q0.46875 1.09375 1.171875 1.734375q0.71875 0.640625 1.59375 0.921875q0.875 0.265625 1.734375 0.265625q0.8125 0 1.609375 -0.234375q0.8125 -0.25 1.5 -0.671875q0.5625 -0.34375 1.046875 -0.71875q0.5 -0.390625 0.82814026 -0.671875l0.46875 0l0 4.171875q-0.65626526 0.28125 -1.2656403 0.546875q-0.59375 0.25 -1.25 0.4375q-0.859375 0.25 -1.609375 0.375q-0.75 0.140625 -2.0625 0.140625z" fill-rule="nonzero"></path><path fill="#cfe2f3" d="m136.87927 358.26788l0 0c0 -4.3313904 3.5112762 -7.842682 7.8426666 -7.842682l32.283157 0l0 0c2.0800018 0 4.074814 0.8262634 5.5456085 2.297058c1.4707794 1.4707947 2.297058 3.4656067 2.297058 5.545624l0 31.369751c0 4.3313904 -3.5112762 7.842682 -7.8426666 7.842682l-32.283157 0c-4.3313904 0 -7.8426666 -3.5112915 -7.8426666 -7.842682z" fill-rule="nonzero"></path><path stroke="#000000" stroke-width="2.0" stroke-linejoin="round" stroke-linecap="butt" d="m136.87927 358.26788l0 0c0 -4.3313904 3.5112762 -7.842682 7.8426666 -7.842682l32.283157 0l0 0c2.0800018 0 4.074814 0.8262634 5.5456085 2.297058c1.4707794 1.4707947 2.297058 3.4656067 2.297058 5.545624l0 31.369751c0 4.3313904 -3.5112762 7.842682 -7.8426666 7.842682l-32.283157 0c-4.3313904 0 -7.8426666 -3.5112915 -7.8426666 -7.842682z" fill-rule="nonzero"></path><path fill="#000000" d="m162.28929 382.83652q-1.9375 0 -3.59375 -0.578125q-1.640625 -0.578125 -2.828125 -1.71875q-1.171875 -1.125 -1.828125 -2.828125q-0.65625 -1.703125 -0.65625 -3.921875q0 -2.078125 0.625 -3.765625q0.625 -1.6875 1.8125 -2.890625q1.125 -1.171875 2.8125 -1.796875q1.6875 -0.640625 3.671875 -0.640625q1.109375 0 1.984375 0.125q0.890625 0.125 1.640625 0.328125q0.78125 0.21875 1.421875 0.5q0.640625 0.265625 1.125 0.5l0 4.234375l-0.515625 0q-0.328125 -0.28125 -0.828125 -0.65625q-0.5 -0.390625 -1.140625 -0.765625q-0.640625 -0.375 -1.390625 -0.625q-0.75 -0.265625 -1.609375 -0.265625q-0.9375 0 -1.796875 0.296875q-0.859375 0.296875 -1.578125 0.984375q-0.703125 0.671875 -1.125 1.78125q-0.421875 1.09375 -0.421875 2.65625q0 1.640625 0.453125 2.75q0.46875 1.09375 1.171875 1.734375q0.71875 0.640625 1.59375 0.921875q0.875 0.265625 1.734375 0.265625q0.8125 0 1.609375 -0.234375q0.8125 -0.25 1.5 -0.671875q0.5625 -0.34375 1.046875 -0.71875q0.5 -0.390625 0.828125 -0.671875l0.46875 0l0 4.171875q-0.65625 0.28125 -1.265625 0.546875q-0.59375 0.25 -1.25 0.4375q-0.859375 0.25 -1.609375 0.375q-0.75 0.140625 -2.0625 0.140625z" fill-rule="nonzero"></path><path fill="#cfe2f3" d="m80.879265 270.26788l0 0c0 -4.3313904 3.5112839 -7.842682 7.8426743 -7.842682l32.28315 0l0 0c2.0800095 0 4.074829 0.8262634 5.545616 2.297058c1.4707794 1.4707947 2.297058 3.4656067 2.297058 5.545624l0 31.369751c0 4.3313904 -3.5112762 7.842682 -7.8426743 7.842682l-32.28315 0c-4.3313904 0 -7.8426743 -3.5112915 -7.8426743 -7.842682z" fill-rule="nonzero"></path><path stroke="#000000" stroke-width="2.0" stroke-linejoin="round" stroke-linecap="butt" d="m80.879265 270.26788l0 0c0 -4.3313904 3.5112839 -7.842682 7.8426743 -7.842682l32.28315 0l0 0c2.0800095 0 4.074829 0.8262634 5.545616 2.297058c1.4707794 1.4707947 2.297058 3.4656067 2.297058 5.545624l0 31.369751c0 4.3313904 -3.5112762 7.842682 -7.8426743 7.842682l-32.28315 0c-4.3313904 0 -7.8426743 -3.5112915 -7.8426743 -7.842682z" fill-rule="nonzero"></path><path fill="#000000" d="m106.2893 294.83652q-1.9375 0 -3.59375 -0.578125q-1.640625 -0.578125 -2.828125 -1.71875q-1.171875 -1.125 -1.828125 -2.828125q-0.65625 -1.703125 -0.65625 -3.921875q0 -2.078125 0.625 -3.765625q0.625 -1.6875 1.8125 -2.890625q1.125 -1.171875 2.8125 -1.796875q1.6875 -0.640625 3.671875 -0.640625q1.109375 0 1.984375 0.125q0.890625 0.125 1.640625 0.328125q0.78125 0.21875 1.421875 0.5q0.640625 0.265625 1.125 0.5l0 4.234375l-0.515625 0q-0.328125 -0.28125 -0.828125 -0.65625q-0.5 -0.390625 -1.140625 -0.765625q-0.640625 -0.375 -1.390625 -0.625q-0.75 -0.265625 -1.609375 -0.265625q-0.9375 0 -1.796875 0.296875q-0.859375 0.296875 -1.578125 0.984375q-0.703125 0.671875 -1.125 1.78125q-0.421875 1.09375 -0.421875 2.65625q0 1.640625 0.453125 2.75q0.46875 1.09375 1.171875 1.734375q0.71875 0.640625 1.59375 0.921875q0.875 0.265625 1.734375 0.265625q0.8125 0 1.609375 -0.234375q0.8125 -0.25 1.5 -0.671875q0.5625 -0.34375 1.046875 -0.71875q0.5 -0.390625 0.828125 -0.671875l0.46875 0l0 4.171875q-0.65625 0.28125 -1.265625 0.546875q-0.59375 0.25 -1.25 0.4375q-0.859375 0.25 -1.609375 0.375q-0.75 0.140625 -2.0625 0.140625z" fill-rule="nonzero"></path><path fill="#cfe2f3" d="m288.87927 102.267876l0 0c0 -4.3313904 3.5112915 -7.842682 7.842682 -7.842682l32.283142 0l0 0c2.080017 0 4.074829 0.8262863 5.5455933 2.2970734c1.4707947 1.470787 2.2970886 3.465599 2.2970886 5.5456085l0 31.369759c0 4.3313904 -3.5112915 7.842682 -7.842682 7.842682l-32.283142 0c-4.3313904 0 -7.842682 -3.5112915 -7.842682 -7.842682z" fill-rule="nonzero"></path><path stroke="#000000" stroke-width="2.0" stroke-linejoin="round" stroke-linecap="butt" d="m288.87927 102.267876l0 0c0 -4.3313904 3.5112915 -7.842682 7.842682 -7.842682l32.283142 0l0 0c2.080017 0 4.074829 0.8262863 5.5455933 2.2970734c1.4707947 1.470787 2.2970886 3.465599 2.2970886 5.5456085l0 31.369759c0 4.3313904 -3.5112915 7.842682 -7.842682 7.842682l-32.283142 0c-4.3313904 0 -7.842682 -3.5112915 -7.842682 -7.842682z" fill-rule="nonzero"></path><path fill="#000000" d="m314.2893 126.8365q-1.9375 0 -3.59375 -0.578125q-1.640625 -0.578125 -2.828125 -1.71875q-1.171875 -1.125 -1.828125 -2.828125q-0.65625 -1.703125 -0.65625 -3.921875q0 -2.078125 0.625 -3.765625q0.625 -1.6875 1.8125 -2.890625q1.125 -1.171875 2.8125 -1.796875q1.6875 -0.640625 3.671875 -0.640625q1.109375 0 1.984375 0.125q0.890625 0.125 1.640625 0.328125q0.78125 0.21875 1.421875 0.5q0.640625 0.265625 1.125 0.5l0 4.234375l-0.515625 0q-0.328125 -0.28125 -0.828125 -0.65625q-0.5 -0.390625 -1.140625 -0.765625q-0.640625 -0.375 -1.390625 -0.625q-0.75 -0.265625 -1.609375 -0.265625q-0.9375 0 -1.796875 0.296875q-0.859375 0.296875 -1.578125 0.984375q-0.703125 0.671875 -1.125 1.78125q-0.421875 1.09375 -0.421875 2.65625q0 1.640625 0.453125 2.75q0.46875 1.09375 1.171875 1.734375q0.71875 0.640625 1.59375 0.921875q0.875 0.265625 1.734375 0.265625q0.8125 0 1.609375 -0.234375q0.8125 -0.25 1.5 -0.671875q0.5625 -0.34375 1.046875 -0.71875q0.5 -0.390625 0.828125 -0.671875l0.46875 0l0 4.171875q-0.65625 0.28125 -1.265625 0.546875q-0.59375 0.25 -1.25 0.4375q-0.859375 0.25 -1.609375 0.375q-0.75 0.140625 -2.0625 0.140625z" fill-rule="nonzero"></path><path fill="#000000" fill-opacity="0.0" d="m443.12073 329.47244c-24.56839 0 -36.853333 -18.881897 -49.13681 -37.763794c-12.283447 -18.881866 -24.56543 -37.763763 -49.13089 -37.763763" fill-rule="nonzero"></path><path stroke="#000000" stroke-width="2.0" stroke-linejoin="round" stroke-linecap="butt" d="m443.12073 329.47244c-24.56839 0 -36.853333 -18.881897 -49.13681 -37.763794c-6.1417236 -9.440918 -12.283081 -18.881866 -19.959717 -25.962585c-3.8382874 -3.5403442 -8.060425 -6.4906616 -12.858276 -8.555847c-2.3989563 -1.0326233 -4.9418335 -1.8439484 -7.652649 -2.39711c-0.3388672 -0.06916809 -0.6803589 -0.13427734 -1.0244751 -0.19528198c-0.17208862 -0.03050232 -0.34481812 -0.05999756 -0.5182495 -0.08843994l-0.28308105 -0.044555664" fill-rule="evenodd"></path><path fill="#000000" stroke="#000000" stroke-width="2.0" stroke-linecap="butt" d="m351.68744 254.46483l2.4132996 -2.0720673l-6.3323364 1.7739105l5.9911194 2.7114716z" fill-rule="evenodd"></path><path fill="#000000" fill-opacity="0.0" d="m296.87927 253.95276c-24.0 0 -48.0 -20.236221 -48.0 -40.472443" fill-rule="nonzero"></path><path stroke="#000000" stroke-width="2.0" stroke-linejoin="round" stroke-linecap="butt" d="m296.87927 253.95276c-12.0 0 -24.0 -5.0590515 -33.0 -12.647644c-4.5 -3.794281 -8.25 -8.220963 -10.875 -12.963821c-1.3125 -2.3714294 -2.34375 -4.8219147 -3.046875 -7.3119354c-0.043945312 -0.15560913 -0.086624146 -0.3113861 -0.12797546 -0.46731567l-0.07292175 -0.28393555" fill-rule="evenodd"></path><path fill="#000000" stroke="#000000" stroke-width="2.0" stroke-linecap="butt" d="m249.7565 220.27812l2.5185394 1.94281l-3.0215607 -5.840851l-1.4397736 6.416565z" fill-rule="evenodd"></path><path fill="#000000" fill-opacity="0.0" d="m296.87927 253.95276c-18.007874 0 -27.01181 4.0 -36.015747 8.0c-9.003952 4.0 -18.007889 8.0 -36.015762 8.0" fill-rule="nonzero"></path><path stroke="#000000" stroke-width="2.0" stroke-linejoin="round" stroke-linecap="butt" d="m296.87927 253.95276c-18.007874 0 -27.01181 4.0 -36.015747 8.0c-4.5019836 2.0 -9.003952 4.0 -14.631409 5.5c-2.8137207 0.75 -5.9088287 1.375 -9.425995 1.8125c-0.8792877 0.109375 -1.7849579 0.20703125 -2.7191925 0.2919922c-0.46713257 0.04248047 -0.94140625 0.08178711 -1.4230957 0.11779785c-0.24082947 0.018005371 -0.48353577 0.035186768 -0.7281189 0.05154419l-0.23704529 0.014862061" fill-rule="evenodd"></path><path fill="#000000" stroke="#000000" stroke-width="2.0" stroke-linecap="butt" d="m231.69868 269.7415l2.178772 -2.3174438l-6.1072693 2.4385986l6.245926 2.0576172z" fill-rule="evenodd"></path><path fill="#000000" fill-opacity="0.0" d="m296.87927 253.95276c-3.9568481 0 5.0902405 -36.0 -7.9136963 -72.0c-13.003937 -36.0 -48.0589 -72.0 -96.11781 -72.0" fill-rule="nonzero"></path><path stroke="#000000" stroke-width="2.0" stroke-linejoin="round" stroke-linecap="butt" d="m296.87927 253.95276c-3.9568481 0 5.090271 -36.0 -7.913666 -72.0c-6.5019836 -18.0 -18.516693 -36.0 -34.913315 -49.5c-8.198288 -6.75 -17.492065 -12.375 -27.73993 -16.3125c-5.123947 -1.96875 -10.486404 -3.515625 -16.069717 -4.5703125c-2.7916718 -0.52734375 -5.6385345 -0.9316406 -8.538437 -1.2041016c-0.36247253 -0.034057617 -0.72579956 -0.0660553 -1.0899353 -0.09597778l-0.9167938 -0.06993103" fill-rule="evenodd"></path><path fill="#000000" stroke="#000000" stroke-width="2.0" stroke-linecap="butt" d="m199.69748 110.199936l2.328827 -2.1665955l-6.2566376 2.0248566l6.094406 2.4705505z" fill-rule="evenodd"></path><path fill="#000000" fill-opacity="0.0" d="m144.87927 109.95276c-20.000008 0 -40.000008 76.23622 -40.000008 152.47244" fill-rule="nonzero"></path><path stroke="#000000" stroke-width="2.0" stroke-linejoin="round" stroke-linecap="butt" d="m144.87927 109.95276c-10.0 0 -20.000008 19.059052 -27.500008 47.64763c-3.75 14.294296 -6.875 30.970978 -9.0625 48.838837c-1.09375 8.933929 -1.953125 18.165665 -2.5390625 27.546295c-0.29296875 4.6903076 -0.5175705 9.417847 -0.6689453 14.164001c-0.075683594 2.3730774 -0.13305664 4.7508087 -0.17151642 7.130844l-0.0041046143 0.29086304" fill-rule="evenodd"></path><path fill="#000000" stroke="#000000" stroke-width="2.0" stroke-linecap="butt" d="m104.93313 255.57123l-2.2314224 -2.2667694l2.2005386 6.1970367l2.2976608 -6.161682z" fill-rule="evenodd"></path><path fill="#000000" fill-opacity="0.0" d="m168.86351 133.48032c0 8.236221 0.01576233 12.354324 0.0315094 16.472443c0.01574707 4.118103 0.03149414 8.236221 0.03149414 16.472443" fill-rule="nonzero"></path><path stroke="#000000" stroke-width="2.0" stroke-linejoin="round" stroke-linecap="butt" d="m168.86351 133.48032c0 8.236221 0.01576233 12.354324 0.0315094 16.472443c0.007873535 2.0590515 0.01574707 4.118103 0.021652222 6.691925l0.004837036 2.9263458" fill-rule="evenodd"></path><path fill="#000000" stroke="#000000" stroke-width="2.0" stroke-linecap="butt" d="m168.92151 159.57103l-2.2508087 -2.247528l2.2536774 6.177887l2.2446594 -6.1811676z" fill-rule="evenodd"></path><path fill="#000000" fill-opacity="0.0" d="m168.86351 86.42519c0 -12.5 36.0 -25.999996 72.0 -24.999996c36.000015 1.0 72.000015 16.499996 72.000015 32.999996" fill-rule="nonzero"></path><path stroke="#000000" stroke-width="2.0" stroke-linejoin="round" stroke-linecap="butt" d="m168.86351 86.42519c0 -12.5 36.0 -25.999996 72.0 -24.999996c18.000015 0.5 36.000015 4.624996 49.500015 10.687496c6.75 3.03125 12.375 6.546875 16.3125 10.3359375c0.984375 0.9472656 1.8632507 1.9116287 2.6279297 2.8897705c0.38232422 0.4890747 0.736084 0.9816055 1.0601807 1.4771652c0.16204834 0.24777222 0.3166809 0.496315 0.46374512 0.7455597l0.15646362 0.27253723" fill-rule="evenodd"></path><path fill="#000000" stroke="#000000" stroke-width="2.0" stroke-linecap="butt" d="m310.98434 87.83366l-2.7796326 -1.546341l3.8572083 5.326111l0.46878052 -6.559395z" fill-rule="evenodd"></path><path fill="#000000" fill-opacity="0.0" d="m296.87927 253.95276c-6.0078735 0 -9.01181 26.0 -12.015747 52.0c-3.0039368 26.0 -6.0078735 52.0 -12.015747 52.0" fill-rule="nonzero"></path><path stroke="#000000" stroke-width="2.0" stroke-linejoin="round" stroke-linecap="butt" d="m296.87927 253.95276c-6.0078735 0 -9.01181 26.0 -12.015747 52.0c-1.5019836 13.0 -3.0039368 26.0 -4.8814087 35.75c-0.46936035 2.4375 -0.9621887 4.671875 -1.484375 6.6523438c-0.26107788 0.9902344 -0.52948 1.9169922 -0.80596924 2.7739258c-0.13824463 0.4284668 -0.27850342 0.83947754 -0.42086792 1.2322388l-0.101501465 0.27139282" fill-rule="evenodd"></path><path fill="#000000" stroke="#000000" stroke-width="2.0" stroke-linecap="butt" d="m277.1694 352.6327l-0.32763672 -3.1638794l-2.1505127 6.2145386l5.642029 -3.378296z" fill-rule="evenodd"></path><path fill="#000000" fill-opacity="0.0" d="m200.86351 293.48032c0 14.236206 -10.0 21.35434 -20.0 28.472443c-10.0 7.118103 -20.0 14.236206 -20.0 28.472443" fill-rule="nonzero"></path><path stroke="#000000" stroke-width="2.0" stroke-linejoin="round" stroke-linecap="butt" d="m200.86351 293.48032c0 14.236206 -10.0 21.35434 -20.0 28.472443c-5.0 3.5590515 -10.0 7.118103 -13.75 11.566925c-1.875 2.2243958 -3.4375 4.6712646 -4.53125 7.451782c-0.2734375 0.6951294 -0.51756287 1.4111023 -0.7299652 2.1496887l-0.13812256 0.50286865" fill-rule="evenodd"></path><path fill="#000000" stroke="#000000" stroke-width="2.0" stroke-linecap="butt" d="m161.71417 343.62402l-1.952652 -2.5109253l1.464859 6.4108887l2.998703 -5.8526z" fill-rule="evenodd"></path><path fill="#000000" fill-opacity="0.0" d="m128.84776 285.95276c16.015747 0 32.03151 32.236206 32.03151 64.47244" fill-rule="nonzero"></path><path stroke="#000000" stroke-width="2.0" stroke-linejoin="round" stroke-linecap="butt" d="m128.84776 285.95276c8.007874 0 16.015747 8.0590515 22.021652 20.147644c3.0029602 6.044281 5.505417 13.095947 7.257141 20.651306c0.87586975 3.77771 1.5640411 7.681305 2.033249 11.647858c0.11730957 0.9916382 0.220932 1.9872131 0.31036377 2.9857483c0.04472351 0.49926758 0.08590698 0.9992676 0.12347412 1.4999084l0.04925537 0.6898804" fill-rule="evenodd"></path><path fill="#000000" stroke="#000000" stroke-width="2.0" stroke-linecap="butt" d="m160.6429 343.5751l-2.3253784 -2.1702576l2.4609222 6.098297l2.034729 -6.253418z" fill-rule="evenodd"></path><path fill="#000000" fill-opacity="0.0" d="m168.86351 213.48032c0 34.23622 -2.0 51.35434 -4.0 68.47244c-2.0 17.118103 -4.0 34.236206 -4.0 68.47244" fill-rule="nonzero"></path><path stroke="#000000" stroke-width="2.0" stroke-linejoin="round" stroke-linecap="butt" d="m168.86351 213.48032c0 34.23622 -2.0 51.35434 -4.0 68.47244c-1.0 8.5590515 -2.0 17.118103 -2.75 27.816925c-0.375 5.3493958 -0.6875 11.233765 -0.90625 17.920532c-0.109375 3.3433838 -0.1953125 6.8873596 -0.25390625 10.665375c-0.0146484375 0.9444885 -0.02758789 1.9036255 -0.038742065 2.8779297l-0.022155762 2.3375854" fill-rule="evenodd"></path><path fill="#000000" stroke="#000000" stroke-width="2.0" stroke-linecap="butt" d="m160.89246 343.57108l-2.2396545 -2.2586365l2.223053 6.188965l2.275238 -6.169983z" fill-rule="evenodd"></path></g></svg>

